<svg width="38" height="32" viewBox="0 0 38 32" fill="none" xmlns="http://www.w3.org/2000/svg">
<path fill-rule="evenodd" clip-rule="evenodd" d="M3.30833 0.495117C1.48125 0.495117 0 1.99512 0 3.84303V23.9326C0 25.7816 1.48125 27.2805 3.30833 27.2805H14.3385V29.5128H9.92604V31.7451H27.574V29.5128H23.1615V27.2805H34.1917C36.0187 27.2805 37.5 25.7816 37.5 23.9326V3.84303C37.5 1.99512 36.0187 0.495117 34.1917 0.495117H3.30833ZM16.5437 29.5128V27.2805H20.9562V29.5128H16.5437ZM7.72083 4.9597H9.92708V7.19199H12.1333V9.42428H9.92708V11.6555H7.72083V9.42428H5.51458V7.19199H7.72083V4.9597ZM5.51458 16.1201C5.51458 15.5035 6.00833 15.0045 6.61771 15.0045H11.0292C11.6385 15.0045 12.1323 15.5045 12.1323 16.1201V20.5847C12.1323 21.2003 11.6385 21.7003 11.0292 21.7003H6.61771C6.00833 21.7003 5.51354 21.2003 5.51354 20.5847V16.1201H5.51458ZM15.4417 6.07533C15.4417 5.4597 15.9344 4.9597 16.5437 4.9597H20.9552C21.5646 4.9597 22.0594 5.4597 22.0594 6.07533V10.5399C22.0594 11.1566 21.5646 11.6555 20.9552 11.6555H16.5437C15.9344 11.6555 15.4406 11.1555 15.4406 10.5399V6.07533H15.4417ZM15.4417 16.1201C15.4417 15.5035 15.9344 15.0045 16.5437 15.0045H20.9552C21.5646 15.0045 22.0594 15.5045 22.0594 16.1201V20.5847C22.0594 21.2003 21.5646 21.7003 20.9552 21.7003H16.5437C15.9344 21.7003 15.4406 21.2003 15.4406 20.5847V16.1201H15.4417ZM25.3677 6.07533C25.3677 5.4597 25.8615 4.9597 26.4708 4.9597H30.8823C31.4917 4.9597 31.9854 5.4597 31.9854 6.07533V10.5399C31.9854 11.1566 31.4917 11.6555 30.8812 11.6555H26.4708C25.8615 11.6555 25.3667 11.1555 25.3667 10.5399V6.07533H25.3677Z" fill="#1F2226"/>
</svg>
