<svg width="208" height="32" viewBox="0 0 208 32" fill="none" xmlns="http://www.w3.org/2000/svg">
<path d="M12.4339 14.1189L12.6252 7.67881H12.3383L8.03422 19.1244L3.73017 7.67881H3.44324L3.63453 14.1189V24.4168H0V2.16326H4.97356L8.0661 10.3569H8.28928L11.4137 2.16326H16.0684V24.4168H12.4339V14.1189Z" fill="white" fill-opacity="0.7"/>
<path d="M31.6462 7.96575H35.7908L27.916 27.3499C27.4697 28.4764 26.8746 29.3266 26.1306 29.9004C25.3867 30.4956 24.3346 30.7931 22.9743 30.7931H19.9774V27.5731H23.8989L25.1423 24.2574L18.5109 7.96575H22.8468L25.3655 14.8522L27.119 20.0808H27.3421L29.0957 14.8522L31.6462 7.96575Z" fill="white" fill-opacity="0.7"/>
<path d="M46.0124 24.7993C44.0995 24.7993 42.4629 24.4699 41.1026 23.811C39.7636 23.1521 38.669 22.2807 37.8188 21.1967L40.3375 18.5824C41.1664 19.5388 42.0591 20.2509 43.0156 20.7185C43.9933 21.1648 45.0347 21.388 46.14 21.388C47.4152 21.388 48.393 21.1011 49.0731 20.5272C49.7532 19.9533 50.0933 19.1244 50.0933 18.0404C50.0933 17.1477 49.8383 16.4782 49.3282 16.0318C48.818 15.5642 47.9572 15.2348 46.7457 15.0435L44.3865 14.6609C42.3248 14.2996 40.8582 13.5557 39.9868 12.4292C39.1153 11.2815 38.6796 9.93179 38.6796 8.38021C38.6796 6.25476 39.3704 4.62878 40.7519 3.50229C42.1335 2.35455 44.0464 1.78067 46.4907 1.78067C48.2335 1.78067 49.732 2.05698 50.986 2.6096C52.2613 3.16222 53.2815 3.91675 54.0467 4.87321L51.5918 7.48752C50.9966 6.78612 50.2846 6.2335 49.4557 5.82967C48.6268 5.40457 47.649 5.19203 46.5226 5.19203C44.0995 5.19203 42.888 6.19099 42.888 8.18892C42.888 9.0391 43.1431 9.68737 43.6532 10.1337C44.1633 10.5801 45.0347 10.9095 46.2675 11.122L48.5949 11.5365C50.529 11.8978 51.9637 12.6099 52.8989 13.6726C53.8341 14.7353 54.3017 16.0956 54.3017 17.7535C54.3017 18.7949 54.1211 19.7514 53.7597 20.6228C53.3984 21.473 52.867 22.2169 52.1656 22.8546C51.4642 23.4709 50.5928 23.9492 49.5513 24.2892C48.5311 24.6293 47.3515 24.7993 46.0124 24.7993Z" fill="white" fill-opacity="0.7"/>
<path d="M66.5 24.4168C64.9272 24.4168 63.7688 24.0023 63.0249 23.1734C62.281 22.3444 61.909 21.2711 61.909 19.9533V11.1858H57.1268V7.96575H60.3787C61.0376 7.96575 61.5052 7.83822 61.7815 7.58317C62.0578 7.30686 62.196 6.82863 62.196 6.14848V2.16326H65.9899V7.96575H72.6851V11.1858H65.9899V21.1967H72.6851V24.4168H66.5Z" fill="white" fill-opacity="0.7"/>
<path d="M84.5008 24.7993C83.2468 24.7993 82.1203 24.5974 81.1213 24.1936C80.1436 23.7898 79.304 23.2159 78.6026 22.472C77.9225 21.7281 77.3911 20.8247 77.0086 19.762C76.6472 18.6993 76.4666 17.509 76.4666 16.1913C76.4666 14.8735 76.6472 13.6832 77.0086 12.6205C77.3911 11.5578 77.9225 10.6544 78.6026 9.91054C79.304 9.16663 80.1436 8.59276 81.1213 8.18892C82.1203 7.78508 83.2468 7.58317 84.5008 7.58317C85.7335 7.58317 86.8494 7.78508 87.8484 8.18892C88.8473 8.59276 89.6869 9.16663 90.367 9.91054C91.0684 10.6544 91.5998 11.5578 91.9611 12.6205C92.3437 13.6832 92.535 14.8735 92.535 16.1913C92.535 17.509 92.3437 18.6993 91.9611 19.762C91.5998 20.8247 91.0684 21.7281 90.367 22.472C89.6869 23.2159 88.8473 23.7898 87.8484 24.1936C86.8494 24.5974 85.7335 24.7993 84.5008 24.7993ZM84.5008 21.6749C85.6698 21.6749 86.5944 21.3242 87.2745 20.6228C87.9546 19.9002 88.2947 18.8481 88.2947 17.4665V14.916C88.2947 13.5344 87.9546 12.493 87.2745 11.7916C86.5944 11.0689 85.6698 10.7076 84.5008 10.7076C83.3318 10.7076 82.4072 11.0689 81.7271 11.7916C81.0469 12.493 80.7068 13.5344 80.7068 14.916V17.4665C80.7068 18.8481 81.0469 19.9002 81.7271 20.6228C82.4072 21.3242 83.3318 21.6749 84.5008 21.6749Z" fill="white" fill-opacity="0.7"/>
<path d="M104.255 24.7993C103.001 24.7993 101.875 24.5974 100.876 24.1936C99.8766 23.7898 99.0264 23.2159 98.325 22.472C97.6449 21.7281 97.1135 20.8247 96.7309 19.762C96.3696 18.6993 96.189 17.509 96.189 16.1913C96.189 14.8735 96.3696 13.6832 96.7309 12.6205C97.1135 11.5578 97.6449 10.6544 98.325 9.91054C99.0264 9.16663 99.866 8.59276 100.844 8.18892C101.843 7.78508 102.969 7.58317 104.223 7.58317C105.966 7.58317 107.369 7.94449 108.432 8.66715C109.494 9.3898 110.302 10.3463 110.855 11.5365L107.698 13.2581C107.401 12.5567 106.976 11.9935 106.423 11.5684C105.892 11.122 105.158 10.8989 104.223 10.8989C103.012 10.8989 102.076 11.2496 101.418 11.951C100.78 12.6524 100.461 13.6088 100.461 14.8203V17.5622C100.461 18.7524 100.78 19.7089 101.418 20.4315C102.076 21.1329 103.033 21.4836 104.287 21.4836C105.265 21.4836 106.04 21.2605 106.614 20.8141C107.209 20.3678 107.688 19.7726 108.049 19.0287L111.11 20.846C110.557 22.015 109.717 22.9715 108.591 23.7154C107.486 24.438 106.04 24.7993 104.255 24.7993Z" fill="white" fill-opacity="0.7"/>
<path d="M115.624 0.824219H119.705V14.6609H119.897L122.288 12.0466L126.337 7.96575H131.087L124.551 14.4378L131.788 24.4168H126.911L121.65 16.7651L119.705 18.6143V24.4168H115.624V0.824219Z" fill="white" fill-opacity="0.7"/>
<path d="M134.837 24.4168V2.16326H143.285C145.453 2.16326 147.111 2.77964 148.259 4.0124C149.407 5.24516 149.981 6.92427 149.981 9.04973C149.981 11.1752 149.407 12.8543 148.259 14.0871C147.111 15.3198 145.453 15.9362 143.285 15.9362H139.013V24.4168H134.837ZM139.013 12.5248H142.425C143.551 12.5248 144.359 12.3017 144.848 11.8553C145.336 11.3877 145.581 10.6544 145.581 9.65548V8.44397C145.581 7.44501 145.336 6.72236 144.848 6.27601C144.359 5.80841 143.551 5.57461 142.425 5.57461H139.013V12.5248Z" fill="white" fill-opacity="0.7"/>
<path d="M153.698 21.1967H158.927V4.04428H153.698V0.824219H163.008V21.1967H168.268V24.4168H153.698V21.1967Z" fill="white" fill-opacity="0.7"/>
<path d="M183.177 21.5155H183.017C182.656 22.4082 182.093 23.184 181.327 23.8429C180.583 24.4805 179.542 24.7993 178.203 24.7993C176.588 24.7993 175.27 24.268 174.25 23.2053C173.251 22.1213 172.751 20.5803 172.751 18.5824V7.96575H176.832V18.0085C176.832 20.389 177.863 21.5793 179.925 21.5793C180.328 21.5793 180.722 21.5261 181.104 21.4199C181.508 21.3136 181.859 21.1542 182.156 20.9417C182.475 20.7078 182.72 20.4315 182.89 20.1127C183.081 19.7939 183.177 19.4113 183.177 18.965V7.96575H187.257V24.4168H183.177V21.5155Z" fill="white" fill-opacity="0.7"/>
<path d="M208 26.1384C208 27.86 207.277 29.1247 205.832 29.9323C204.408 30.7613 202.176 31.1757 199.137 31.1757C197.649 31.1757 196.406 31.0801 195.407 30.8888C194.408 30.7187 193.6 30.4637 192.984 30.1236C192.389 29.7835 191.963 29.3691 191.708 28.8802C191.453 28.4126 191.326 27.8813 191.326 27.2861C191.326 26.3722 191.591 25.6708 192.123 25.1819C192.654 24.6931 193.398 24.3317 194.355 24.0979V23.8429C193.717 23.6304 193.207 23.3328 192.824 22.9502C192.463 22.5676 192.282 22.0363 192.282 21.3561C192.282 20.5484 192.548 19.9427 193.079 19.5388C193.632 19.135 194.355 18.8268 195.247 18.6143V18.4549C194.27 17.9873 193.504 17.3284 192.952 16.4782C192.399 15.628 192.123 14.5972 192.123 13.3857C192.123 12.4717 192.282 11.664 192.601 10.9626C192.941 10.24 193.409 9.63423 194.004 9.14537C194.62 8.63527 195.354 8.25268 196.204 7.99763C197.054 7.72132 198 7.58317 199.041 7.58317C200.146 7.58317 201.145 7.73195 202.038 8.02951V7.32811C202.038 6.69047 202.24 6.15911 202.644 5.73402C203.069 5.30893 203.653 5.09638 204.397 5.09638H207.362V8.15704H203.473V8.69903C204.28 9.18788 204.897 9.82552 205.322 10.6119C205.768 11.3771 205.991 12.3017 205.991 13.3857C205.991 14.2996 205.821 15.1179 205.481 15.8406C205.163 16.5632 204.695 17.169 204.079 17.6578C203.483 18.1467 202.75 18.5293 201.879 18.8056C201.029 19.0606 200.083 19.1882 199.041 19.1882C198.616 19.1882 198.202 19.1775 197.798 19.1563C197.415 19.1138 197.043 19.0394 196.682 18.9331C196.384 19.0394 196.097 19.2094 195.821 19.4432C195.545 19.677 195.407 19.9852 195.407 20.3678C195.407 20.8779 195.651 21.1967 196.14 21.3242C196.629 21.4305 197.213 21.4836 197.893 21.4836H201.624C202.771 21.4836 203.749 21.6005 204.557 21.8343C205.364 22.0469 206.023 22.3657 206.533 22.7908C207.044 23.1946 207.415 23.6835 207.649 24.2574C207.883 24.8312 208 25.4582 208 26.1384ZM204.174 26.4253C204.174 25.9365 203.972 25.5433 203.568 25.2457C203.186 24.9694 202.463 24.8312 201.4 24.8312H195.725C195.088 25.1926 194.769 25.7239 194.769 26.4253C194.769 26.9992 195.003 27.4774 195.47 27.86C195.959 28.2426 196.778 28.4339 197.925 28.4339H200.572C202.973 28.4339 204.174 27.7644 204.174 26.4253ZM199.041 16.5101C200.083 16.5101 200.848 16.2656 201.337 15.7768C201.826 15.2667 202.07 14.6078 202.07 13.8001V12.9712C202.07 12.1635 201.826 11.5153 201.337 11.0264C200.848 10.5163 200.083 10.2612 199.041 10.2612C198.021 10.2612 197.266 10.5163 196.778 11.0264C196.289 11.5153 196.044 12.1635 196.044 12.9712V13.8001C196.044 14.6078 196.289 15.2667 196.778 15.7768C197.266 16.2656 198.021 16.5101 199.041 16.5101Z" fill="white" fill-opacity="0.7"/>
</svg>
